# xmcd
#
# Track frame offsets: 
#        150
#        25322
#        46110
#        48275
#        76142
#        117202
#        146366
#        162057
#        181065
#        205581
#        229643
#        243698
#
# Disc length: 3628 seconds
#
# Revision: 0
# Processed by: cddbd v1.5.2PL0 Copyright (c) Steve Scherf et al.
# Submitted via: ExactAudioCopy v0.99pb4
#
DISCID=8a0e2a0c
DTITLE=SHumskaja, Kozlovskij, Lisitzian, Orlov - CD 2 Verdi - La Travi
DTITLE=ata
DYEAR=1947
DGENRE=Classical
TTITLE0=[AKT II] - Hat dein heimatliches Land
TTITLE1=Und kein Wort deinem Vater
TTITLE2=Wie, Alfred, ihr?
TTITLE3=Sehr erfreut mich dein Kommen
TTITLE4=Mir zu folgen gab ich ihm ein Zeichen
TTITLE5=Verachtung trifft den, der sich vergessen
TTITLE6=AKT III - Orchestervorspiel
TTITLE7=Annina?
TTITLE8=Euer Versprechen habt ihr gehalten
TTITLE9=O laﬂ uns fliehen aus diesen Mauern
TTITLE10=Jetzt, mein Alfred, gehen wir
TTITLE11=Ach, Violetta
EXTD=
EXTT0=
EXTT1=
EXTT2=
EXTT3=
EXTT4=
EXTT5=
EXTT6=
EXTT7=
EXTT8=
EXTT9=
EXTT10=
EXTT11=
PLAYORDER=
